<svg xmlns="http://www.w3.org/2000/svg" width="91.042" height="86.779" viewBox="0 0 91.042 86.779">
  <path id="logoStar" d="M92.667,37.988l-2.28-7.015a1.112,1.112,0,0,0-1.058-.768H65.6L58.345,7.879a1.112,1.112,0,0,0-1.058-.768H42.537a1.112,1.112,0,0,0-1.058.768L34.145,30.448H10.67a1.112,1.112,0,0,0-1.058.768L7.334,38.231l-2.28,7.015a1.112,1.112,0,0,0,.4,1.243l19.2,13.948L17.4,82.763a1.112,1.112,0,0,0,.4,1.243l5.967,4.335,0,0,5.963,4.333a1.113,1.113,0,0,0,1.307,0l19.2-13.948,18.991,13.8a1.113,1.113,0,0,0,1.308,0l5.968-4.336,5.967-4.335a1.112,1.112,0,0,0,.4-1.243L75.55,60.044l18.991-13.8a1.112,1.112,0,0,0,.4-1.243Zm-4.146-5.559,1.78,5.478L84.324,42.25,72.548,50.8l-.379-1.165-1.178-3.625,9.337-6.783a1.112,1.112,0,0,0-.654-2.012H49.292l1.556-4.79H88.521ZM44.344,45.246s0,0,0,.005l-2.391,7.36L37.669,49.5l8.555-26.328,2.647,8.145-.33,1.015L46.7,37.987ZM53.869,46.7l2.367,7.284-6.2,4.5-6.2-4.5L46.211,46.7h7.658Zm-5.721,13.16-4.283,3.112L21.469,46.7h8.564Zm-3.629,5.386,6.175-4.486,0,0,6.262-4.549,1.636,5.035-3.15,2.289L36.2,77.516l2.646-8.145ZM56.207,46.7H61.5l8.554,26.329L63.127,68l-.691-2.126Zm6.1-2.225H46.934l1.636-5.035H76.251l-6.93,5.034H62.309ZM56.479,9.335,63.26,30.2H58.223L51.442,9.335ZM36.012,31.9s0,0,0,0L43.345,9.335H49.1L55.884,30.2H50.848L47.282,19.229a1.112,1.112,0,0,0-2.116,0l-9.389,28.9L31.7,45.165l2.03-6.246Zm-24.533.768H33.422l-1.557,4.791H9.922ZM7.42,45.165,9.2,39.687H31.143l-1.557,4.791H18.046a1.112,1.112,0,0,0-.654,2.012l24.58,17.859L37.9,67.309l0,0-5.308-3.858-5.968-4.335h0ZM19.768,82.683l6.78-20.87,4.076,2.961L23.843,85.643Zm29.824-6.229,0,0L30.394,90.4l-4.658-3.385,5-15.389,1.781-5.481L34.6,67.665l1.986,1.444L33.025,80.084a1.112,1.112,0,0,0,1.712,1.243L59.317,63.469l1.556,4.789L58.5,69.986l-2.934,2.131h0Zm20.3,13.8-17.752-12.9,4.075-2.96,17.753,12.9Zm10.627-7.721-4.659,3.385-17.753-12.9,3.265-2.372.81-.589,9.336,6.784A1.112,1.112,0,0,0,73.229,75.6L63.841,46.7h5.035ZM74.827,57.819l-1.556-4.791,5.978-4.343,11.776-8.555,1.555,4.79Z" transform="translate(-4.479 -6.611)" fill="none" stroke="#fff" stroke-width="1"/>
</svg>
