<svg xmlns="http://www.w3.org/2000/svg" width="325.311" height="86.779" viewBox="0 0 325.311 86.779">
  <g id="logo" transform="translate(-90.479 -53)">
    <path id="logo-2" data-name="logo" d="M92.667,37.988l-2.28-7.015a1.112,1.112,0,0,0-1.058-.768H65.6L58.345,7.879a1.112,1.112,0,0,0-1.058-.768H42.537a1.112,1.112,0,0,0-1.058.768L34.145,30.448H10.67a1.112,1.112,0,0,0-1.058.768L7.334,38.231l-2.28,7.015a1.112,1.112,0,0,0,.4,1.243l19.2,13.948L17.4,82.763a1.112,1.112,0,0,0,.4,1.243l5.967,4.335,0,0,5.963,4.333a1.113,1.113,0,0,0,1.307,0l19.2-13.948,18.991,13.8a1.113,1.113,0,0,0,1.308,0l5.968-4.336,5.967-4.335a1.112,1.112,0,0,0,.4-1.243L75.55,60.044l18.991-13.8a1.112,1.112,0,0,0,.4-1.243Zm-4.146-5.559,1.78,5.478L84.324,42.25,72.548,50.8l-.379-1.165-1.178-3.625,9.337-6.783a1.112,1.112,0,0,0-.654-2.012H49.292l1.556-4.79H88.521ZM44.344,45.246s0,0,0,.005l-2.391,7.36L37.669,49.5l8.555-26.328,2.647,8.145-.33,1.015L46.7,37.987ZM53.869,46.7l2.367,7.284-6.2,4.5-6.2-4.5L46.211,46.7h7.658Zm-5.721,13.16-4.283,3.112L21.469,46.7h8.564Zm-3.629,5.386,6.175-4.486,0,0,6.262-4.549,1.636,5.035-3.15,2.289L36.2,77.516l2.646-8.145ZM56.207,46.7H61.5l8.554,26.329L63.127,68l-.691-2.126Zm6.1-2.225H46.934l1.636-5.035H76.251l-6.93,5.034H62.309ZM56.479,9.335,63.26,30.2H58.223L51.442,9.335ZM36.012,31.9s0,0,0,0L43.345,9.335H49.1L55.884,30.2H50.848L47.282,19.229a1.112,1.112,0,0,0-2.116,0l-9.389,28.9L31.7,45.165l2.03-6.246Zm-24.533.768H33.422l-1.557,4.791H9.922ZM7.42,45.165,9.2,39.687H31.143l-1.557,4.791H18.046a1.112,1.112,0,0,0-.654,2.012l24.58,17.859L37.9,67.309l0,0-5.308-3.858-5.968-4.335h0ZM19.768,82.683l6.78-20.87,4.076,2.961L23.843,85.643Zm29.824-6.229,0,0L30.394,90.4l-4.658-3.385,5-15.389,1.781-5.481L34.6,67.665l1.986,1.444L33.025,80.084a1.112,1.112,0,0,0,1.712,1.243L59.317,63.469l1.556,4.789L58.5,69.986l-2.934,2.131h0Zm20.3,13.8-17.752-12.9,4.075-2.96,17.753,12.9Zm10.627-7.721-4.659,3.385-17.753-12.9,3.265-2.372.81-.589,9.336,6.784A1.112,1.112,0,0,0,73.229,75.6L63.841,46.7h5.035ZM74.827,57.819l-1.556-4.791,5.978-4.343,11.776-8.555,1.555,4.79Z" transform="translate(86 46.389)" fill="none" stroke="#fff" stroke-width="1"/>
    <path id="svg-path" d="M16.1,6a11.844,11.844,0,0,1,0,23.688H3.743V42.048a1.471,1.471,0,1,1-2.943,0V28.217a1.471,1.471,0,0,1,1.471-1.471H16.1a8.9,8.9,0,1,0,0-17.8H5.824l9.59,9.59a1.471,1.471,0,0,1-2.08,2.081l-12.1-12.1A1.471,1.471,0,0,1,2.272,6H16.1Zm39.6,9.932A1.471,1.471,0,0,1,57.17,17.4V42.048a1.471,1.471,0,1,1-2.943,0V38.226a13.794,13.794,0,1,1,0-17V17.4A1.471,1.471,0,0,1,55.7,15.932ZM43.376,40.576A10.851,10.851,0,1,0,32.525,29.725,10.863,10.863,0,0,0,43.376,40.576ZM75.3,15.932A13.831,13.831,0,1,1,64.416,38.276v13.7a1.471,1.471,0,1,1-2.943,0V17.4a1.471,1.471,0,1,1,2.943,0v3.846A13.81,13.81,0,0,1,75.3,15.932Zm0,24.718A10.888,10.888,0,1,0,64.416,29.762,10.9,10.9,0,0,0,75.3,40.65Zm31.908-24.718a13.809,13.809,0,0,1,13.794,13.794,1.471,1.471,0,0,1-1.471,1.471H96.46a10.852,10.852,0,0,0,18.425,6.2,1.471,1.471,0,0,1,2.081,2.081,13.794,13.794,0,1,1-9.754-23.547ZM96.46,28.254h21.5a10.852,10.852,0,0,0-21.5,0ZM139.1,15.932a1.471,1.471,0,1,1,0,2.943,10.863,10.863,0,0,0-10.851,10.851V42.048a1.471,1.471,0,1,1-2.943,0V17.4a1.471,1.471,0,1,1,2.943,0v3.822A13.772,13.772,0,0,1,139.1,15.932ZM160.175,6a11.844,11.844,0,0,1,0,23.688h-12.36V42.048a1.471,1.471,0,1,1-2.943,0V28.217a1.471,1.471,0,0,1,1.471-1.471h13.831a8.9,8.9,0,0,0,0-17.8H149.9l9.59,9.59a1.471,1.471,0,0,1-2.08,2.081l-12.1-12.1A1.471,1.471,0,0,1,146.344,6h13.831Zm27.274,9.932a13.794,13.794,0,1,1-13.794,13.794,13.809,13.809,0,0,1,13.794-13.794Zm0,24.645A10.851,10.851,0,1,0,176.6,29.725a10.863,10.863,0,0,0,10.851,10.851Zm31.67,0a1.471,1.471,0,1,1,0,2.943,13.588,13.588,0,0,1-13.573-13.573V7.472a1.471,1.471,0,1,1,2.943,0v8.471h10.63a1.471,1.471,0,0,1,0,2.943h-10.63v11.06a10.642,10.642,0,0,0,10.63,10.63Z" transform="translate(194.7 72.664)" fill="none" stroke="#fff" stroke-width="1"/>
  </g>
</svg>
